<svg width="14" height="14" viewBox="0 0 14 14" fill="none" xmlns="http://www.w3.org/2000/svg">
<mask id="mask0_97_469" style="mask-type:alpha" maskUnits="userSpaceOnUse" x="0" y="0" width="14" height="14">
<rect width="14" height="14" fill="#D9D9D9"/>
</mask>
<g mask="url(#mask0_97_469)">
<path d="M3.67949 12.5417C3.38483 12.5417 3.13542 12.4396 2.93125 12.2354C2.72708 12.0313 2.625 11.7818 2.625 11.4872V2.51287C2.625 2.21821 2.72708 1.96879 2.93125 1.76462C3.13542 1.56046 3.38483 1.45837 3.67949 1.45837H8.3125L11.375 4.52085V11.4872C11.375 11.7818 11.2729 12.0313 11.0687 12.2354C10.8646 12.4396 10.6151 12.5417 10.3205 12.5417H3.67949ZM7.875 4.95835V2.33336H3.67949C3.63461 2.33336 3.59347 2.35206 3.55607 2.38945C3.51868 2.42685 3.49999 2.46799 3.49999 2.51287V11.4872C3.49999 11.5321 3.51868 11.5732 3.55607 11.6106C3.59347 11.648 3.63461 11.6667 3.67949 11.6667H10.3205C10.3654 11.6667 10.4065 11.648 10.4439 11.6106C10.4813 11.5732 10.5 11.5321 10.5 11.4872V4.95835H7.875Z" fill="#1C1B1F" fill-opacity="0.5"/>
</g>
</svg>
