<svg width="105" height="29" viewBox="0 0 105 29" fill="none" xmlns="http://www.w3.org/2000/svg">
<path d="M4.44086 10.058C3.5127 10.058 2.71775 9.85838 2.05601 9.45906C1.39426 9.0555 0.885067 8.49476 0.528413 7.77685C0.176056 7.05893 -0.00012207 6.22632 -0.00012207 5.27902C-0.00012207 4.33171 0.176056 3.4991 0.528413 2.78118C0.885067 2.06327 1.39426 1.50466 2.05601 1.10534C2.71775 0.70178 3.5127 0.5 4.44086 0.5C5.36902 0.5 6.16397 0.70178 6.82571 1.10534C7.49175 1.50466 8.00095 2.06327 8.35331 2.78118C8.70996 3.4991 8.88829 4.33171 8.88829 5.27902C8.88829 6.22632 8.70996 7.05893 8.35331 7.77685C8.00095 8.49476 7.49175 9.0555 6.82571 9.45906C6.16397 9.85838 5.36902 10.058 4.44086 10.058ZM4.44086 8.61158C5.06393 8.61583 5.58172 8.47989 5.99424 8.20377C6.41105 7.92765 6.72258 7.53896 6.92884 7.03769C7.1394 6.53643 7.24467 5.9502 7.24467 5.27902C7.24467 4.60783 7.1394 4.02585 6.92884 3.53308C6.72258 3.03606 6.41105 2.64949 5.99424 2.37337C5.58172 2.09725 5.06393 1.95494 4.44086 1.94645C3.81779 1.9422 3.3 2.07814 2.88748 2.35426C2.47497 2.63038 2.16343 3.01907 1.95288 3.52034C1.74662 4.0216 1.64349 4.60783 1.64349 5.27902C1.64349 5.9502 1.74662 6.5343 1.95288 7.03132C2.15914 7.52409 2.46852 7.90854 2.88104 8.18466C3.29785 8.46078 3.81779 8.60309 4.44086 8.61158Z" fill="black"/>
<path d="M10.1713 9.86687V0.69116H16.3783V2.13124H11.7246V4.10656H14.0064C14.0923 4.10656 14.2062 4.11081 14.348 4.11931C14.4941 4.12356 14.6273 4.13205 14.7476 4.1448C15.2675 4.20427 15.7015 4.36782 16.0496 4.63544C16.4019 4.90307 16.6662 5.24078 16.8424 5.64859C17.0229 6.0564 17.1131 6.50244 17.1131 6.98672C17.1131 7.47099 17.025 7.91916 16.8488 8.33121C16.6727 8.73902 16.4084 9.07674 16.056 9.34437C15.708 9.60774 15.2718 9.76917 14.7476 9.82864C14.6273 9.84138 14.4962 9.852 14.3544 9.8605C14.2126 9.86475 14.0966 9.86687 14.0064 9.86687H10.1713ZM11.7246 8.42679H13.9419C14.0278 8.42679 14.1245 8.42255 14.2319 8.41405C14.3394 8.40555 14.4382 8.39281 14.5284 8.37582C14.9152 8.29511 15.1816 8.11669 15.3277 7.84057C15.4738 7.56445 15.5468 7.27983 15.5468 6.98672C15.5468 6.68936 15.4738 6.40474 15.3277 6.13287C15.1816 5.85675 14.9152 5.67833 14.5284 5.59762C14.4382 5.57638 14.3394 5.56363 14.2319 5.55938C14.1245 5.55089 14.0278 5.54664 13.9419 5.54664H11.7246V8.42679Z" fill="black"/>
<path d="M22.3298 10.058C21.4016 10.058 20.6067 9.85838 19.9449 9.45906C19.2832 9.0555 18.774 8.49476 18.4173 7.77685C18.065 7.05893 17.8888 6.22632 17.8888 5.27902C17.8888 4.33171 18.065 3.4991 18.4173 2.78118C18.774 2.06327 19.2832 1.50466 19.9449 1.10534C20.6067 0.70178 21.4016 0.5 22.3298 0.5C23.2579 0.5 24.0529 0.70178 24.7146 1.10534C25.3807 1.50466 25.8899 2.06327 26.2422 2.78118C26.5989 3.4991 26.7772 4.33171 26.7772 5.27902C26.7772 6.22632 26.5989 7.05893 26.2422 7.77685C25.8899 8.49476 25.3807 9.0555 24.7146 9.45906C24.0529 9.85838 23.2579 10.058 22.3298 10.058ZM22.3298 8.61158C22.9528 8.61583 23.4706 8.47989 23.8831 8.20377C24.3 7.92765 24.6115 7.53896 24.8178 7.03769C25.0283 6.53643 25.1336 5.9502 25.1336 5.27902C25.1336 4.60783 25.0283 4.02585 24.8178 3.53308C24.6115 3.03606 24.3 2.64949 23.8831 2.37337C23.4706 2.09725 22.9528 1.95494 22.3298 1.94645C21.7067 1.9422 21.1889 2.07814 20.7764 2.35426C20.3639 2.63038 20.0523 3.01907 19.8418 3.52034C19.6355 4.0216 19.5324 4.60783 19.5324 5.27902C19.5324 5.9502 19.6355 6.5343 19.8418 7.03132C20.048 7.52409 20.3574 7.90854 20.7699 8.18466C21.1868 8.46078 21.7067 8.60309 22.3298 8.61158Z" fill="black"/>
<path d="M28.0602 9.86687V0.69116H31.8953C31.9855 0.69116 32.1015 0.695408 32.2433 0.703904C32.3851 0.708153 32.5162 0.720897 32.6365 0.742137C33.1736 0.822849 33.6162 0.999141 33.9643 1.27101C34.3166 1.54289 34.5766 1.88698 34.7442 2.30328C34.9161 2.71534 35.002 3.17412 35.002 3.67964C35.002 4.1809 34.9161 4.63969 34.7442 5.05599C34.5723 5.46805 34.3102 5.81002 33.9578 6.08189C33.6098 6.35376 33.1693 6.53006 32.6365 6.61077C32.5162 6.62776 32.383 6.6405 32.2369 6.649C32.0951 6.6575 31.9812 6.66174 31.8953 6.66174H29.6135V9.86687H28.0602ZM29.6135 5.22804H31.8308C31.9168 5.22804 32.0134 5.22379 32.1209 5.2153C32.2283 5.2068 32.3271 5.18981 32.4174 5.16432C32.6752 5.1006 32.8771 4.98803 33.0232 4.8266C33.1736 4.66518 33.2789 4.48251 33.3391 4.27861C33.4035 4.0747 33.4357 3.87505 33.4357 3.67964C33.4357 3.48423 33.4035 3.28457 33.3391 3.08067C33.2789 2.87252 33.1736 2.68773 33.0232 2.5263C32.8771 2.36488 32.6752 2.25231 32.4174 2.18859C32.3271 2.1631 32.2283 2.14823 32.1209 2.14398C32.0134 2.13549 31.9168 2.13124 31.8308 2.13124H29.6135V5.22804Z" fill="black"/>
<path d="M37.518 9.86687L38.7427 7.39453L35.5392 0.69116H37.2924L39.5548 5.77603L41.8881 0.69116H43.5446L39.1745 9.86687H37.518Z" fill="black"/>
<path d="M43.0986 11.3962V8.42679C43.3994 8.42679 43.6508 8.35245 43.8528 8.20377C44.0547 8.05509 44.2159 7.84906 44.3362 7.58569C44.4608 7.32231 44.5575 7.01645 44.6262 6.66812C44.695 6.31553 44.7487 5.94171 44.7874 5.54664C44.8346 5.02414 44.8755 4.51225 44.9098 4.01098C44.9442 3.50547 44.9764 2.98296 45.0065 2.44347C45.0409 1.89972 45.0796 1.31137 45.1225 0.678417L51.1749 0.69116V8.42679H51.871V11.3962H50.3241V9.86687H44.652V11.3962H43.0986ZM45.5157 8.42679H49.6215V2.13124L46.5406 2.11849C46.5105 2.56453 46.4847 2.98084 46.4632 3.36741C46.446 3.74973 46.4224 4.13842 46.3923 4.53349C46.3665 4.92855 46.33 5.35973 46.2827 5.82701C46.2398 6.2858 46.1925 6.66812 46.1409 6.97397C46.0937 7.27983 46.0228 7.54533 45.9282 7.77048C45.8337 7.99137 45.6962 8.21015 45.5157 8.42679Z" fill="black"/>
<path d="M57.2138 10.058C56.2856 10.058 55.4907 9.85838 54.8289 9.45906C54.1672 9.0555 53.658 8.49476 53.3013 7.77685C52.949 7.05893 52.7728 6.22632 52.7728 5.27902C52.7728 4.33171 52.949 3.4991 53.3013 2.78118C53.658 2.06327 54.1672 1.50466 54.8289 1.10534C55.4907 0.70178 56.2856 0.5 57.2138 0.5C58.1419 0.5 58.9369 0.70178 59.5986 1.10534C60.2647 1.50466 60.7739 2.06327 61.1262 2.78118C61.4829 3.4991 61.6612 4.33171 61.6612 5.27902C61.6612 6.22632 61.4829 7.05893 61.1262 7.77685C60.7739 8.49476 60.2647 9.0555 59.5986 9.45906C58.9369 9.85838 58.1419 10.058 57.2138 10.058ZM57.2138 8.61158C57.8368 8.61583 58.3546 8.47989 58.7672 8.20377C59.184 7.92765 59.4955 7.53896 59.7018 7.03769C59.9123 6.53643 60.0176 5.9502 60.0176 5.27902C60.0176 4.60783 59.9123 4.02585 59.7018 3.53308C59.4955 3.03606 59.184 2.64949 58.7672 2.37337C58.3546 2.09725 57.8368 1.95494 57.2138 1.94645C56.5907 1.9422 56.0729 2.07814 55.6604 2.35426C55.2479 2.63038 54.9364 3.01907 54.7258 3.52034C54.5195 4.0216 54.4164 4.60783 54.4164 5.27902C54.4164 5.9502 54.5195 6.5343 54.7258 7.03132C54.9321 7.52409 55.2414 7.90854 55.654 8.18466C56.0708 8.46078 56.5907 8.60309 57.2138 8.61158Z" fill="black"/>
<path d="M62.9442 9.86687V0.69116H66.6246C67.2519 0.69116 67.7654 0.816477 68.1651 1.06711C68.569 1.31349 68.8676 1.62997 69.061 2.01654C69.2587 2.40311 69.3575 2.80242 69.3575 3.21448C69.3575 3.71999 69.235 4.14904 68.9901 4.50163C68.7495 4.85421 68.4207 5.0921 68.0039 5.2153V4.89669C68.5883 5.02838 69.0309 5.30238 69.3317 5.71869C69.6368 6.13499 69.7893 6.60864 69.7893 7.13965C69.7893 7.68339 69.6841 8.15917 69.4735 8.56698C69.263 8.97479 68.9493 9.29339 68.5325 9.52278C68.1199 9.75218 67.6086 9.86687 66.9984 9.86687H62.9442ZM64.5169 8.42042H66.8051C67.0758 8.42042 67.3186 8.36732 67.5334 8.26112C67.7483 8.15067 67.9158 7.99774 68.0362 7.80234C68.1608 7.60268 68.2231 7.36691 68.2231 7.09504C68.2231 6.84866 68.1694 6.62776 68.0619 6.43235C67.9545 6.23694 67.7977 6.08189 67.5914 5.96719C67.3852 5.84825 67.1381 5.78878 66.8502 5.78878H64.5169V8.42042ZM64.5169 4.35507H66.6052C66.8287 4.35507 67.0285 4.31259 67.2047 4.22763C67.3809 4.14267 67.5205 4.01736 67.6236 3.85168C67.7268 3.68601 67.7783 3.48211 67.7783 3.23997C67.7783 2.92137 67.6752 2.65587 67.4689 2.44347C67.2627 2.23107 66.9748 2.12487 66.6052 2.12487H64.5169V4.35507Z" fill="black"/>
<path d="M70.4321 9.86687L73.3584 0.69116H75.6336L78.5599 9.86687H76.9614L74.3059 1.63422H74.6539L72.0306 9.86687H70.4321ZM72.0628 7.8788V6.4451H76.9356V7.8788H72.0628Z" fill="black"/>
<path d="M79.7253 9.86687V0.69116H81.2786V4.55261H85.6745V0.69116H87.2214V9.86687H85.6745V5.99268H81.2786V9.86687H79.7253Z" fill="black"/>
<path d="M96.4796 9.86687H94.9068V3.39927L90.6012 9.86687H89.0285V0.69116H90.6012V7.15876L94.9068 0.69116H96.4796V9.86687Z" fill="black"/>
<path d="M98.2814 9.86687V0.69116H104.276V2.13124H99.8348V4.3933H103.502V5.83338H99.8348V8.42679H104.276V9.86687H98.2814Z" fill="black"/>
<path d="M0.0192146 28.5V25.5306C0.320007 25.5306 0.571383 25.4563 0.773344 25.3076C0.975304 25.1589 1.13644 24.9529 1.25676 24.6895C1.38137 24.4262 1.47806 24.1203 1.54681 23.772C1.61556 23.4194 1.66927 23.0456 1.70795 22.6505C1.75522 22.128 1.79604 21.6161 1.83041 21.1148C1.86479 20.6093 1.89702 20.0868 1.9271 19.5473C1.96147 19.0036 2.00015 18.4152 2.04312 17.7823L8.09549 17.795V25.5306H8.7916V28.5H7.24467V26.9707H1.57259V28.5H0.0192146ZM2.43629 25.5306H6.54211V19.2351L3.46114 19.2223C3.43106 19.6684 3.40528 20.0847 3.38379 20.4713C3.3666 20.8536 3.34297 21.2423 3.31289 21.6373C3.28711 22.0324 3.25058 22.4636 3.20332 22.9309C3.16034 23.3896 3.11308 23.772 3.06151 24.0778C3.01425 24.3837 2.94334 24.6492 2.84881 24.8743C2.75428 25.0952 2.61677 25.314 2.43629 25.5306Z" fill="black"/>
<path d="M9.56447 26.9707V25.6836C9.77072 25.6963 9.94475 25.6814 10.0866 25.639C10.2284 25.5922 10.3465 25.5052 10.4411 25.3777C10.5399 25.246 10.6258 25.0612 10.6989 24.8233C10.7719 24.5812 10.8428 24.2775 10.9116 23.9121C11.0104 23.3896 11.0921 22.8459 11.1565 22.2809C11.2253 21.7117 11.2833 21.1531 11.3305 20.6051C11.3778 20.0528 11.4143 19.5346 11.4401 19.0503C11.4659 18.566 11.4874 18.1476 11.5046 17.795H17.7181V26.9707H16.1647V19.2351H12.9419C12.9204 19.5197 12.8947 19.8638 12.8646 20.2674C12.8388 20.6667 12.8023 21.1 12.755 21.5672C12.712 22.0345 12.6562 22.5188 12.5874 23.0201C12.523 23.5213 12.4435 24.0141 12.3489 24.4984C12.263 24.9402 12.1599 25.3374 12.0396 25.6899C11.9192 26.0383 11.7581 26.3271 11.5561 26.5565C11.3585 26.7817 11.0985 26.9325 10.7762 27.0089C10.4582 27.0854 10.0543 27.0727 9.56447 26.9707Z" fill="black"/>
<path d="M26.2282 26.9707H24.6748V23.7656H22.2835L21.6197 23.7082C20.829 23.5808 20.2425 23.2495 19.86 22.7142C19.4776 22.1747 19.2864 21.5311 19.2864 20.7835C19.2864 20.278 19.3702 19.8192 19.5377 19.4071C19.7096 18.9908 19.9696 18.6467 20.3177 18.3749C20.67 18.103 21.1148 17.9267 21.6519 17.846C21.7722 17.8247 21.9033 17.812 22.0451 17.8078C22.1869 17.7993 22.3029 17.795 22.3931 17.795H26.2282V26.9707ZM20.8978 26.9707H19.1381L21.1491 22.8926L22.7283 23.2367L20.8978 26.9707ZM24.6748 22.3319V19.2351H22.4576C22.3716 19.2351 22.275 19.2393 22.1675 19.2478C22.0601 19.2521 21.9613 19.2669 21.871 19.2924C21.6132 19.3562 21.4091 19.4687 21.2587 19.6301C21.1126 19.7916 21.0073 19.9764 20.9429 20.1845C20.8827 20.3884 20.8526 20.5881 20.8526 20.7835C20.8526 20.9789 20.8827 21.1785 20.9429 21.3825C21.0073 21.5864 21.1126 21.769 21.2587 21.9304C21.4091 22.0919 21.6132 22.2044 21.871 22.2682C21.9613 22.2937 22.0601 22.3106 22.1675 22.3191C22.275 22.3276 22.3716 22.3319 22.4576 22.3319H24.6748Z" fill="black"/>
<path d="M30.6157 26.9707V17.795H36.6101V19.2351H32.1691V26.9707H30.6157Z" fill="black"/>
<path d="M37.6404 26.9707V17.795H43.6347V19.2351H39.1937V21.4972H42.8613V22.9372H39.1937V25.5306H43.6347V26.9707H37.6404Z" fill="black"/>
<path d="M48.7162 27.1619C47.7881 27.1619 46.9931 26.9622 46.3314 26.5629C45.6696 26.1593 45.1604 25.5986 44.8038 24.8807C44.4514 24.1628 44.2752 23.3302 44.2752 22.3829C44.2752 21.4356 44.4514 20.6029 44.8038 19.885C45.1604 19.1671 45.6696 18.6085 46.3314 18.2092C46.9931 17.8056 47.7881 17.6038 48.7162 17.6038C49.6444 17.6038 50.4393 17.8056 51.1011 18.2092C51.7671 18.6085 52.2763 19.1671 52.6287 19.885C52.9853 20.6029 53.1637 21.4356 53.1637 22.3829C53.1637 23.3302 52.9853 24.1628 52.6287 24.8807C52.2763 25.5986 51.7671 26.1593 51.1011 26.5629C50.4393 26.9622 49.6444 27.1619 48.7162 27.1619ZM48.7162 25.7154C49.3393 25.7197 49.8571 25.5837 50.2696 25.3076C50.6864 25.0315 50.998 24.6428 51.2042 24.1415C51.4148 23.6403 51.52 23.054 51.52 22.3829C51.52 21.7117 51.4148 21.1297 51.2042 20.6369C50.998 20.1399 50.6864 19.7533 50.2696 19.4772C49.8571 19.2011 49.3393 19.0588 48.7162 19.0503C48.0932 19.046 47.5754 19.182 47.1629 19.4581C46.7503 19.7342 46.4388 20.1229 46.2283 20.6242C46.022 21.1255 45.9189 21.7117 45.9189 22.3829C45.9189 23.054 46.022 23.6381 46.2283 24.1352C46.4345 24.6279 46.7439 25.0124 47.1564 25.2885C47.5732 25.5646 48.0932 25.7069 48.7162 25.7154Z" fill="black"/>
<path d="M53.6985 28.5V25.5306C53.9993 25.5306 54.2507 25.4563 54.4527 25.3076C54.6546 25.1589 54.8158 24.9529 54.9361 24.6895C55.0607 24.4262 55.1574 24.1203 55.2261 23.772C55.2949 23.4194 55.3486 23.0456 55.3873 22.6505C55.4345 22.128 55.4754 21.6161 55.5097 21.1148C55.5441 20.6093 55.5763 20.0868 55.6064 19.5473C55.6408 19.0036 55.6795 18.4152 55.7224 17.7823L61.7748 17.795V25.5306H62.4709V28.5H60.924V26.9707H55.2519V28.5H53.6985ZM56.1156 25.5306H60.2214V19.2351L57.1405 19.2223C57.1104 19.6684 57.0846 20.0847 57.0631 20.4713C57.0459 20.8536 57.0223 21.2423 56.9922 21.6373C56.9664 22.0324 56.9299 22.4636 56.8826 22.9309C56.8397 23.3896 56.7924 23.772 56.7408 24.0778C56.6936 24.3837 56.6227 24.6492 56.5281 24.8743C56.4336 25.0952 56.2961 25.314 56.1156 25.5306Z" fill="black"/>
<path d="M63.8883 26.9707V17.795H69.8827V19.2351H65.4417V21.4972H69.1092V22.9372H65.4417V25.5306H69.8827V26.9707H63.8883Z" fill="black"/>
<path d="M74.3261 27.1619C73.673 27.1619 73.1014 27.0684 72.6116 26.8815C72.126 26.6903 71.7178 26.4461 71.3869 26.1487C71.0604 25.8471 70.809 25.5306 70.6328 25.1993L71.9606 24.3072C72.0637 24.5409 72.2141 24.766 72.4118 24.9826C72.6094 25.195 72.8694 25.3713 73.1917 25.5115C73.514 25.6475 73.9136 25.7154 74.3906 25.7154C74.8503 25.7154 75.2263 25.6475 75.5185 25.5115C75.8107 25.3756 76.0256 25.1972 76.1631 24.9763C76.3006 24.7554 76.3693 24.5154 76.3693 24.2562C76.3693 23.9334 76.2791 23.6849 76.0986 23.5107C75.9182 23.3323 75.6818 23.2091 75.3896 23.1411C75.0974 23.0689 74.7859 23.0286 74.455 23.0201C74.1542 23.0116 73.9372 23.0052 73.804 23.0009C73.6708 22.9967 73.5827 22.9946 73.5397 22.9946C73.4968 22.9946 73.456 22.9946 73.4173 22.9946V21.5418C73.4645 21.5418 73.544 21.5418 73.6558 21.5418C73.7718 21.5418 73.89 21.5418 74.0103 21.5418C74.1349 21.5375 74.2359 21.5333 74.3132 21.529C74.8031 21.5078 75.2048 21.3952 75.5185 21.1913C75.8365 20.9874 75.9955 20.6858 75.9955 20.2865C75.9955 19.8999 75.8473 19.5962 75.5508 19.3753C75.2586 19.1544 74.8697 19.0439 74.3841 19.0439C73.9286 19.0439 73.5269 19.1438 73.1788 19.3434C72.835 19.5431 72.5751 19.7788 72.3989 20.0507L71.3096 18.9547C71.6233 18.5766 72.0487 18.258 72.5858 17.9989C73.1272 17.7355 73.7417 17.6038 74.4292 17.6038C74.8332 17.6038 75.2263 17.6569 75.6088 17.7631C75.9912 17.8651 76.335 18.0223 76.6401 18.2347C76.9451 18.4471 77.1879 18.7189 77.3684 19.0503C77.5489 19.3816 77.6391 19.7767 77.6391 20.2355C77.6391 20.656 77.5575 21.0447 77.3942 21.4016C77.2352 21.7542 77.0117 22.043 76.7238 22.2682C77.1321 22.4296 77.4479 22.676 77.6713 23.0073C77.8991 23.3387 78.013 23.7571 78.013 24.2626C78.013 24.8573 77.8497 25.3713 77.5231 25.8046C77.1965 26.2379 76.7539 26.5735 76.1953 26.8114C75.641 27.0451 75.0179 27.1619 74.3261 27.1619Z" fill="black"/>
<path d="M86.8616 26.9707H85.2889V20.5031L80.9832 26.9707H79.4105V17.795H80.9832V24.2626L85.2889 17.795H86.8616V26.9707Z" fill="black"/>
<path d="M96.1145 26.9707H94.5418V20.5031L90.2361 26.9707H88.6634V17.795H90.2361V24.2626L94.5418 17.795H96.1145V26.9707Z" fill="black"/>
</svg>
