<svg width="32" height="32" viewBox="0 0 32 32" fill="none" xmlns="http://www.w3.org/2000/svg">
    <rect width="32" height="32" rx="16" fill="#6B645C" />
    <g>
        <path d="M7.19995 9.60001V14.4H12" stroke="white" stroke-width="2" stroke-linecap="round" stroke-linejoin="round" />
        <path d="M24.8 22.4V17.6H20" stroke="white" stroke-width="2" stroke-linecap="round" stroke-linejoin="round" />
        <path d="M22.792 13.5997C22.3862 12.4531 21.6966 11.428 20.7876 10.62C19.8785 9.81201 18.7796 9.24748 17.5933 8.97907C16.4071 8.71067 15.1721 8.74714 14.0038 9.08509C12.8354 9.42303 11.7717 10.0514 10.912 10.9117L7.19995 14.3997M24.8 17.5997L21.088 21.0877C20.2282 21.9479 19.1645 22.5763 17.9961 22.9142C16.8278 23.2522 15.5928 23.2887 14.4066 23.0203C13.2203 22.7519 12.1214 22.1873 11.2123 21.3793C10.3033 20.5713 9.61369 19.5462 9.20795 18.3997" stroke="white" stroke-width="2" stroke-linecap="round" stroke-linejoin="round" />
        <animateTransform attributeName="transform" type="rotate" repeatCount="indefinite" dur="1s" values="360 16 16;0 16 16" keyTimes="0;1"></animateTransform>
    </g>
</svg>