<svg width="60" height="60" viewBox="0 0 60 60" fill="none" xmlns="http://www.w3.org/2000/svg">
<mask id="mask0_42_348" style="mask-type:alpha" maskUnits="userSpaceOnUse" x="0" y="0" width="60" height="60">
<rect width="60" height="60" fill="#D9D9D9"/>
</mask>
<g mask="url(#mask0_42_348)">
<path d="M26.3759 39.2501L41.8759 23.7501L40.6259 22.5001L26.3759 36.7501L19.2509 29.6251L18.0009 30.8751L26.3759 39.2501ZM30.0117 51.7501C27.0045 51.7501 24.1767 51.1795 21.5285 50.0382C18.8802 48.8968 16.5765 47.3479 14.6175 45.3914C12.6586 43.4349 11.1077 41.1342 9.96498 38.4892C8.82223 35.8443 8.25085 33.0182 8.25085 30.011C8.25085 27.0037 8.8215 24.176 9.96279 21.5277C11.1041 18.8795 12.653 16.5758 14.6095 14.6169C16.5661 12.6579 18.8668 11.107 21.5117 9.96425C24.1566 8.8215 26.9827 8.25012 29.99 8.25012C32.9972 8.25012 35.825 8.82077 38.4732 9.96206C41.1215 11.1034 43.4251 12.6523 45.3841 14.6088C47.3431 16.5654 48.894 18.8661 50.0367 21.511C51.1795 24.1559 51.7509 26.982 51.7509 29.9892C51.7509 32.9965 51.1802 35.8242 50.0389 38.4725C48.8976 41.1208 47.3487 43.4244 45.3922 45.3834C43.4356 47.3424 41.1349 48.8932 38.49 50.036C35.8451 51.1787 33.019 51.7501 30.0117 51.7501ZM30.0009 50.0001C35.5842 50.0001 40.3134 48.0626 44.1884 44.1876C48.0634 40.3126 50.0009 35.5835 50.0009 30.0001C50.0009 24.4168 48.0634 19.6876 44.1884 15.8126C40.3134 11.9376 35.5842 10.0001 30.0009 10.0001C24.4175 10.0001 19.6884 11.9376 15.8134 15.8126C11.9384 19.6876 10.0009 24.4168 10.0009 30.0001C10.0009 35.5835 11.9384 40.3126 15.8134 44.1876C19.6884 48.0626 24.4175 50.0001 30.0009 50.0001Z" fill="#0A9E4A"/>
</g>
</svg>
